<svg width="96" height="25" viewBox="0 0 96 25" fill="none" xmlns="http://www.w3.org/2000/svg">
<path d="M7.296 19.68V13.728H23.744V19.68H7.296ZM20.576 0L31.328 24H23.36L14.656 3.232H16.672L7.936 24H0L10.72 0H20.576Z" fill="#0D0D0D"/>
<path d="M37.514 10.368H45.898C46.8367 10.368 47.562 10.1547 48.074 9.728C48.6073 9.30133 48.874 8.68267 48.874 7.872C48.874 7.06133 48.6073 6.44267 48.074 6.016C47.562 5.58933 46.8367 5.376 45.898 5.376H36.458L39.818 1.92V24H32.362V0H47.018C48.874 0 50.506 0.330667 51.914 0.992001C53.322 1.65333 54.4207 2.57067 55.21 3.744C55.9993 4.91734 56.394 6.29333 56.394 7.872C56.394 9.408 55.9993 10.7733 55.21 11.968C54.4207 13.1413 53.322 14.0587 51.914 14.72C50.506 15.36 48.874 15.68 47.018 15.68H37.514V10.368ZM40.714 12.768H49.002L57.258 24H48.714L40.714 12.768Z" fill="#0D0D0D"/>
<path d="M63.7648 19.68V13.728H80.2128V19.68H63.7648ZM77.0448 0L87.7968 24H79.8288L71.1247 3.232H73.1408L64.4047 24H56.4688L67.1888 0H77.0448Z" fill="#0D0D0D"/>
<path d="M91.7747 24.352C91.0281 24.352 90.3454 24.1813 89.7268 23.84C89.1081 23.4773 88.6174 22.9867 88.2548 22.368C87.9134 21.7493 87.7428 21.0667 87.7428 20.32C87.7428 19.552 87.9134 18.8693 88.2548 18.272C88.6174 17.6533 89.1081 17.1733 89.7268 16.832C90.3454 16.4693 91.0281 16.288 91.7747 16.288C92.5427 16.288 93.2254 16.4693 93.8228 16.832C94.4414 17.1733 94.9214 17.6533 95.2627 18.272C95.6254 18.8693 95.8067 19.552 95.8067 20.32C95.8067 21.0667 95.6254 21.7493 95.2627 22.368C94.9214 22.9867 94.4414 23.4773 93.8228 23.84C93.2254 24.1813 92.5427 24.352 91.7747 24.352Z" fill="#F7B832"/>
</svg>
